<svg width="56" height="48" viewBox="0 0 56 48" fill="none" xmlns="http://www.w3.org/2000/svg">
<path fill-rule="evenodd" clip-rule="evenodd" d="M23.1012 0.676838C30.7993 -0.28534 39.1216 -0.935655 45.2559 3.92264C51.986 9.25275 56.9635 17.971 55.8417 26.6067C54.7834 34.7542 46.84 39.5735 40.0546 43.9652C34.9692 47.2566 29.074 48.5356 23.1012 47.7973C17.8656 47.1502 13.7149 43.8433 9.80021 40.2255C5.5764 36.3219 0.914578 32.3828 0.171869 26.6067C-0.652018 20.1994 1.53051 13.6491 5.76688 8.8583C10.2062 3.83808 16.5357 1.49744 23.1012 0.676838Z" fill="#E89026" fill-opacity="0.1"/>
<path d="M42.5997 17.5713L47.6666 20.4667V40.7333C47.6666 41.4329 47.0995 42 46.3999 42H13.4665C12.767 42 12.1998 41.4329 12.1998 40.7333V20.4667L17.2664 17.5714L42.5997 17.5713Z" fill="#F27029"/>
<path d="M42.5999 23.9387V4.47507C42.5999 4.21271 42.3873 4 42.1249 4H17.7417C17.4793 4 17.2666 4.21264 17.2666 4.47507V23.9388L29.9328 31.6295L42.5999 23.9387Z" fill="white"/>
<path d="M40.6998 4V25.0924L42.5998 23.9387V4.47507C42.5998 4.21271 42.3872 4 42.1248 4H40.6998Z" fill="#D9D9D9"/>
<path d="M23.5603 17.4115V14.8711C23.9826 15.0878 24.2728 15.5269 24.2728 16.0332C24.2728 16.3611 24.5386 16.6269 24.8666 16.6269C25.1945 16.6269 25.4603 16.3611 25.4603 16.0332C25.4603 14.8627 24.6496 13.8786 23.5603 13.6114V13.4999C23.5603 13.172 23.2945 12.9062 22.9666 12.9062C22.6387 12.9062 22.3728 13.172 22.3728 13.4999V13.6114C21.2836 13.8785 20.4729 14.8627 20.4729 16.0332C20.4729 17.2035 21.2836 18.1877 22.3728 18.4549V20.9952C21.9505 20.7785 21.6604 20.3395 21.6604 19.8332C21.6604 19.5053 21.3946 19.2394 21.0667 19.2394C20.7388 19.2394 20.4729 19.5052 20.4729 19.8332C20.4729 21.0036 21.2836 21.9877 22.3728 22.2549V22.3666C22.3728 22.6945 22.6386 22.9604 22.9666 22.9604C23.2945 22.9604 23.5603 22.6946 23.5603 22.3666V22.2549C24.6496 21.9878 25.4603 21.0036 25.4603 19.8332C25.4603 18.6627 24.6496 17.6786 23.5603 17.4115ZM21.6603 16.0332C21.6603 15.5269 21.9505 15.0878 22.3728 14.8711V17.1951C21.9505 16.9784 21.6603 16.5395 21.6603 16.0332ZM23.5603 20.9952V18.6713C23.9826 18.888 24.2728 19.3269 24.2728 19.8332C24.2728 20.3395 23.9826 20.7785 23.5603 20.9952Z" fill="#2E4F5A"/>
<path d="M38.7998 14.7268H27.3998C27.0719 14.7268 26.806 14.461 26.806 14.1331C26.806 13.8051 27.0718 13.5393 27.3998 13.5393H38.7998C39.1277 13.5393 39.3936 13.8051 39.3936 14.1331C39.3936 14.461 39.1279 14.7268 38.7998 14.7268Z" fill="#D4D8DA"/>
<path d="M38.7998 18.5267H27.3998C27.0719 18.5267 26.806 18.261 26.806 17.933C26.806 17.6051 27.0718 17.3392 27.3998 17.3392H38.7998C39.1277 17.3392 39.3936 17.605 39.3936 17.933C39.3936 18.261 39.1279 18.5267 38.7998 18.5267Z" fill="#D4D8DA"/>
<path d="M38.7998 22.3267H27.3998C27.0719 22.3267 26.806 22.061 26.806 21.733C26.806 21.4051 27.0718 21.1392 27.3998 21.1392H38.7998C39.1277 21.1392 39.3936 21.405 39.3936 21.733C39.3937 22.061 39.1279 22.3267 38.7998 22.3267Z" fill="#D4D8DA"/>
<path d="M34.5411 9.06662H25.3253C25.0719 9.06662 24.8666 8.86125 24.8666 8.60787V6.99198C24.8666 6.7386 25.0719 6.53323 25.3253 6.53323H34.5411C34.7945 6.53323 34.9999 6.7386 34.9999 6.99198V8.60787C34.9998 8.86118 34.7944 9.06662 34.5411 9.06662Z" fill="#D4D8DA"/>
<path d="M12.6677 41.7159L29.9327 31.2335L29.9331 31.2333L12.1998 20.4667V40.7333C12.1998 41.1299 12.3824 41.4837 12.6677 41.7159Z" fill="#F4B641"/>
<path d="M47.1988 41.7159L29.9338 31.2335L29.9335 31.2333L47.6668 20.4667V40.7333C47.6667 41.1299 47.4841 41.4837 47.1988 41.7159Z" fill="#F4B641"/>
<path d="M13.4667 42H46.4C46.703 42 46.9809 41.8933 47.1988 41.7159L29.933 31.2336L12.6678 41.7159C12.8858 41.8933 13.1637 42 13.4667 42Z" fill="#FB8436"/>
<path d="M45.7666 21.6203V40.7333C45.7666 40.7703 45.7635 40.8064 45.7604 40.8425L47.1989 41.7159C47.4843 41.4836 47.6668 41.1299 47.6668 40.7333V20.4667L45.7666 21.6203Z" fill="#FB8436"/>
<path d="M29.9329 31.2339L29.9332 31.2343L29.9346 31.2333L29.9329 31.2339Z" fill="#FB8436"/>
<path d="M46.5621 41.9885C46.5881 41.9851 46.6139 41.9815 46.6395 41.9766C46.6556 41.9736 46.6714 41.9696 46.6873 41.966C46.7095 41.9608 46.7315 41.9554 46.7532 41.949C46.7702 41.9441 46.7868 41.9388 46.8034 41.9332C46.8233 41.9265 46.843 41.9192 46.8623 41.9116C46.8794 41.9048 46.8965 41.8981 46.9132 41.8907C46.9312 41.8826 46.9488 41.8738 46.9663 41.8651C46.9833 41.8565 47.0004 41.8482 47.0169 41.839C47.0332 41.8299 47.0489 41.8198 47.0646 41.8101C47.1112 41.7813 47.1565 41.7503 47.1988 41.7159L45.755 40.8394C45.701 41.4891 45.1575 42 44.4937 42H46.3999C46.4409 42 46.4813 41.9977 46.5214 41.9939C46.5352 41.9926 46.5485 41.9902 46.5621 41.9885Z" fill="#F27029"/>
</svg>
