<svg width="89" height="89" viewBox="0 0 89 89" fill="none" xmlns="http://www.w3.org/2000/svg">
<path d="M26.7 26.7L29.105 24.963C28.3516 23.9199 27.0116 23.4813 25.7873 23.8772C24.5629 24.2731 23.7333 25.4132 23.7333 26.7H26.7ZM44.5 83.0667C23.2002 83.0667 5.93333 65.8001 5.93333 44.5H0C0 69.0765 19.9233 89 44.5 89V83.0667ZM83.0667 44.5C83.0667 65.8001 65.8001 83.0667 44.5 83.0667V89C69.0765 89 89 69.0765 89 44.5H83.0667ZM44.5 5.93333C65.8001 5.93333 83.0667 23.2002 83.0667 44.5H89C89 19.9233 69.0765 0 44.5 0V5.93333ZM44.5 0C19.9233 0 0 19.9233 0 44.5H5.93333C5.93333 23.2002 23.2002 5.93333 44.5 5.93333V0ZM29.6667 71.2V26.7H23.7333V71.2H29.6667ZM24.295 28.437L62.8619 81.8367L67.6714 78.3633L29.105 24.963L24.295 28.437ZM59.3333 23.7333V59.3333H65.2667V23.7333H59.3333Z" fill="#FC552A"/>
</svg>
