<svg width="21" height="26" viewBox="0 0 21 26" fill="none" xmlns="http://www.w3.org/2000/svg">
<path d="M14.3201 4.65852H2.86175C2.35544 4.6591 1.87003 4.8592 1.51201 5.21494C1.15399 5.57068 0.952605 6.053 0.952026 6.55609V24.5829C0.952032 24.7573 1.00037 24.9282 1.09175 25.077C1.18312 25.2259 1.31399 25.3468 1.47 25.4266C1.626 25.5063 1.80111 25.5418 1.97609 25.5292C2.15108 25.5166 2.31918 25.4563 2.46195 25.355L8.5901 21.005L14.72 25.355C14.8628 25.4563 15.0309 25.5166 15.2058 25.5292C15.3808 25.5418 15.5559 25.5063 15.7119 25.4265C15.8679 25.3468 15.9988 25.2258 16.0901 25.077C16.1815 24.9282 16.2298 24.7572 16.2298 24.5829V6.55609C16.2292 6.053 16.0278 5.57068 15.6698 5.21494C15.3118 4.8592 14.8264 4.6591 14.3201 4.65852V4.65852Z" fill="#21262E"/>
<path d="M18.1395 0.863403H5.72635C5.4731 0.863403 5.23023 0.963364 5.05116 1.14129C4.87209 1.31923 4.77148 1.56055 4.77148 1.81218C4.77148 2.06382 4.87209 2.30514 5.05116 2.48307C5.23023 2.661 5.4731 2.76096 5.72635 2.76096H18.1395V20.7878C18.1395 21.0394 18.2401 21.2808 18.4192 21.4587C18.5983 21.6366 18.8412 21.7366 19.0944 21.7366C19.3476 21.7366 19.5905 21.6366 19.7696 21.4587C19.9487 21.2808 20.0493 21.0394 20.0493 20.7878V2.76096C20.0487 2.25788 19.8473 1.77556 19.4893 1.41982C19.1313 1.06408 18.6459 0.863979 18.1395 0.863403V0.863403Z" fill="#21262E"/>
</svg>
