<svg width="48" height="48" viewBox="0 0 48 48" fill="none" xmlns="http://www.w3.org/2000/svg">
<path d="M25.5001 0C15.5746 0 7.50012 8.0745 7.50012 18V19.2562L4.57737 28.026C4.42512 28.4835 4.50162 28.986 4.78362 29.3775C5.06562 29.769 5.51787 30 6.00012 30H7.50012V36C7.50012 38.4818 9.51837 40.5 12.0001 40.5H16.5001V46.5C16.5001 47.328 17.1721 48 18.0001 48H36.0001C36.8281 48 37.5001 47.328 37.5001 46.5V36C37.5001 33.7065 38.5869 31.8322 39.8446 29.6625C41.5584 26.7075 43.5001 23.358 43.5001 18C43.5001 8.0745 35.4256 0 25.5001 0Z" fill="url(#paint0_linear_1040_60)"/>
<path d="M25.5 6C18.8835 6 13.5 11.3835 13.5 18C13.5 19.824 13.9222 21.1335 14.7922 22.0042C15.579 22.7925 16.686 23.1757 18.177 23.1757C19.1295 23.1757 20.1885 23.0302 21.309 22.8757C22.5863 22.6995 24.033 22.5 25.5 22.5C26.967 22.5 28.4138 22.6995 29.691 22.875C30.8123 23.0295 31.8713 23.175 32.8237 23.175C35.9265 23.175 37.5 21.4342 37.5 18C37.5 11.3835 32.1165 6 25.5 6Z" fill="url(#paint1_linear_1040_60)"/>
<defs>
<linearGradient id="paint0_linear_1040_60" x1="10.3599" y1="40.9808" x2="42.1419" y2="9.198" gradientUnits="userSpaceOnUse">
<stop stop-color="#FA9D74"/>
<stop offset="1" stop-color="#FADF9B"/>
</linearGradient>
<linearGradient id="paint1_linear_1040_60" x1="17.58" y1="24.792" x2="33.417" y2="8.955" gradientUnits="userSpaceOnUse">
<stop stop-color="#FF6A59"/>
<stop offset="1" stop-color="#FFA677"/>
</linearGradient>
</defs>
</svg>
