<svg width="24" height="27" viewBox="0 0 24 27" fill="none" xmlns="http://www.w3.org/2000/svg">
<path d="M12.1586 14.1352L11.8413 15.8748C10.6444 15.6547 9.30906 15.2744 8.05743 14.8067C7.15696 14.4718 6.29838 14.0915 5.56545 13.6966C1.88144 11.7095 1.17428 9.54752 0.550883 7.63802C0.467119 7.38072 0.380133 7.11533 0.288315 6.85803C-0.117618 5.71557 -0.0966775 4.84982 0.35436 4.21063C0.934264 3.39019 2.01031 3.20571 3.39564 3.16849C3.81285 3.15878 4.26066 3.1604 4.72942 3.16364C4.96138 3.16526 5.2014 3.16687 5.44786 3.16687V4.93559C5.19817 4.93559 4.95494 4.93397 4.71814 4.93235C4.27194 4.92912 3.85473 4.9275 3.4794 4.93559C3.12018 4.94368 2.79962 4.96148 2.52256 4.9987C1.91366 5.07799 1.79929 5.21878 1.78801 5.23496C1.7864 5.23658 1.65109 5.44371 1.94265 6.26415C2.04253 6.5441 2.13273 6.82082 2.22133 7.08944C2.79801 8.85654 3.29738 10.389 6.10991 11.9813C6.20173 12.0331 6.29677 12.0865 6.39503 12.1383C8.00588 13.004 10.2659 13.7889 12.1586 14.1352Z" fill="#F9D12B"/>
<path d="M4.731 3.16522C4.96296 3.16684 5.20298 3.16846 5.44943 3.16846V4.93556C5.19975 4.93556 4.95652 4.93394 4.71972 4.93232C4.27352 4.92908 3.85631 4.92747 3.48098 4.93556C3.42299 4.17985 3.40366 3.5358 3.39722 3.16846C3.81604 3.15875 4.26224 3.16199 4.731 3.16522Z" fill="#FFB41D"/>
<path d="M12.1587 14.1351L11.8413 15.8747C10.6445 15.6547 9.30908 15.2744 8.05745 14.8067C7.53232 13.9927 6.8026 12.9733 6.11316 11.9797C6.20498 12.0315 6.30002 12.0849 6.39828 12.1366C8.0059 13.004 10.2659 13.7888 12.1587 14.1351Z" fill="#FFB41D"/>
<path d="M11.8413 14.1352L12.1586 15.8748C13.3555 15.6547 14.6909 15.2744 15.9425 14.8067C16.843 14.4718 17.7016 14.0915 18.4345 13.6966C22.1201 11.7095 22.8257 9.54752 23.4491 7.63802C23.5328 7.38072 23.6198 7.11533 23.7116 6.85803C24.1176 5.71557 24.0966 4.84982 23.6456 4.21063C23.0657 3.39019 21.9896 3.20571 20.6043 3.16849C20.1871 3.15878 19.7393 3.1604 19.2705 3.16364C19.0386 3.16526 18.7986 3.16687 18.5521 3.16687V4.93559C18.8018 4.93559 19.045 4.93397 19.2818 4.93235C19.728 4.92912 20.1452 4.9275 20.5205 4.93559C20.8798 4.94368 21.2003 4.96148 21.4774 4.9987C22.0863 5.07799 22.2007 5.21878 22.2119 5.23496C22.2135 5.23658 22.3489 5.44371 22.0573 6.26415C21.9574 6.5441 21.8672 6.82082 21.7786 7.08944C21.2019 8.85654 20.7026 10.389 17.89 11.9813C17.7982 12.0331 17.7032 12.0865 17.6049 12.1383C15.9941 13.004 13.7341 13.7889 11.8413 14.1352Z" fill="#F9D12B"/>
<path d="M19.269 3.16522C19.037 3.16684 18.797 3.16846 18.5505 3.16846V4.93556C18.8002 4.93556 19.0435 4.93394 19.2803 4.93232C19.7265 4.92908 20.1437 4.92747 20.519 4.93556C20.577 4.17985 20.5963 3.5358 20.6028 3.16846C20.1855 3.15875 19.7377 3.16199 19.269 3.16522Z" fill="#FFB41D"/>
<path d="M11.8413 14.1351L12.1586 15.8747C13.3555 15.6547 14.6909 15.2744 15.9425 14.8067C16.4677 13.9927 17.1974 12.9733 17.8868 11.9797C17.795 12.0315 17.7 12.0849 17.6017 12.1366C15.9941 13.004 13.7341 13.7888 11.8413 14.1351Z" fill="#FFB41D"/>
<path d="M18.0012 11.033C19.9133 8.68983 19.8295 5.54077 19.8295 2.67976V1.95156C19.8295 1.50979 19.4735 1.15216 19.0337 1.15216H12.0008H4.96622C4.52646 1.15216 4.17047 1.50979 4.17047 1.95156V2.67976C4.17047 5.54077 4.0867 8.68983 5.99878 11.033C7.7095 13.1318 10.6573 15.2355 10.6573 18.2001C10.6573 19.1371 10.8072 20.1565 10.4544 21.0579C10.1886 21.7359 9.67312 22.2036 9.01911 22.3735C8.66312 22.4657 8.29101 22.5402 8.16375 22.9722C8.08804 23.2312 8.13959 23.5208 8.43599 23.5208H10.6283H12.0008H13.3716H15.564C15.8604 23.5208 15.9119 23.2312 15.8362 22.9722C15.7106 22.5386 15.3385 22.4657 14.9809 22.3735C14.3252 22.2036 13.8098 21.7343 13.5456 21.0563C13.2041 20.1776 13.3426 19.1257 13.3426 18.1985C13.3442 15.2371 16.2905 13.1318 18.0012 11.033Z" fill="url(#paint0_linear_90_4471)"/>
<path d="M20.4304 2.30435H3.56962C3.01871 2.30435 2.57251 1.8561 2.57251 1.30267V1.00168C2.57251 0.448247 3.01871 0 3.56962 0H20.4304C20.9813 0 21.4275 0.448247 21.4275 1.00168V1.30267C21.4275 1.8561 20.9813 2.30435 20.4304 2.30435Z" fill="#FFB41D"/>
<path d="M13.5375 18.2066H10.4624C10.1306 18.2066 9.85999 17.9363 9.85999 17.6014C9.85999 17.268 10.129 16.9962 10.4624 16.9962H13.5359C13.8678 16.9962 14.1384 17.2664 14.1384 17.6014C14.14 17.9347 13.8694 18.2066 13.5375 18.2066Z" fill="#FFB41D"/>
<path d="M17.4954 26.4158H6.82196C6.70759 26.4158 6.62383 26.3333 6.65443 26.2475L6.95727 23.7344C7.0652 23.4238 7.43247 23.2069 7.85129 23.2069H16.4677C16.8865 23.2069 17.2538 23.4238 17.3617 23.7344L17.6646 26.2475C17.6936 26.3317 17.6098 26.4158 17.4954 26.4158Z" fill="#7366FF"/>
<path d="M17.9706 27H6.34675C6.02619 27 5.76685 26.7395 5.76685 26.4175C5.76685 26.0954 6.02619 25.8349 6.34675 25.8349H17.9722C18.2928 25.8349 18.5521 26.0954 18.5521 26.4175C18.5505 26.7395 18.2912 27 17.9706 27Z" fill="#7366FF"/>
<path d="M11.77 12C11.7033 12 11.6433 11.9767 11.59 11.93C11.5433 11.8833 11.52 11.8233 11.52 11.75V6.78L10.08 7.89C10.02 7.93667 9.95667 7.95333 9.89 7.94C9.83 7.92667 9.77667 7.89 9.73 7.83L9.23 7.18C9.19 7.12 9.17333 7.05667 9.18 6.99C9.19333 6.92333 9.23 6.87 9.29 6.83L11.57 5.07C11.61 5.04333 11.6467 5.02667 11.68 5.02C11.72 5.00667 11.7633 5 11.81 5H12.87C12.9367 5 12.9933 5.02333 13.04 5.07C13.0867 5.11667 13.11 5.17667 13.11 5.25V11.75C13.11 11.8233 13.0867 11.8833 13.04 11.93C12.9933 11.9767 12.9367 12 12.87 12H11.77Z" fill="#BF5C01"/>
<defs>
<linearGradient id="paint0_linear_90_4471" x1="12" y1="1.15216" x2="12" y2="23.5208" gradientUnits="userSpaceOnUse">
<stop stop-color="#FFC42B"/>
<stop offset="1" stop-color="#FFB727"/>
</linearGradient>
</defs>
</svg>
