<svg width="43" height="42" viewBox="0 0 43 42" fill="none" xmlns="http://www.w3.org/2000/svg">
<path d="M24.3 0H10.3C8.37007 0 6.79999 1.57008 6.79999 3.50003V28.7C6.79999 30.6299 8.37007 32.2001 10.3 32.2001H22.9V30.8H10.3C9.14223 30.8 8.20001 29.8578 8.20001 28.7V3.50003C8.20001 2.34224 9.14223 1.40003 10.3 1.40003H24.3C25.4578 1.40003 26.4 2.34224 26.4 3.50003V23.8001H27.8V3.50003C27.8 1.57008 26.2299 0 24.3 0Z" fill="#7366FF"/>
<path d="M34.5137 18.6452L27.6467 10.0632L26.5526 10.9382L33.4196 19.5195C34.3107 20.6325 34.8006 22.0311 34.8 23.457V40.6H24.559C20.9429 40.6 18.0001 37.6578 18.0001 34.041V31.5H16.6V34.041C16.6 38.4292 20.1708 42 24.559 42H35.5C35.8871 42 36.2 41.6871 36.2 41.3V23.4577C36.2007 21.7161 35.6022 20.0067 34.5137 18.6452Z" fill="#7366FF"/>
<path d="M18.6972 16.5081C19.1886 16.5221 19.6458 16.7265 19.9824 17.0835L29.3898 27.0795L30.4096 26.1198L21.0009 16.1231C20.4066 15.4937 19.6023 15.1333 18.7371 15.1087C17.8628 15.0794 17.0487 15.3978 16.4271 15.9852C16.4194 15.9929 16.3634 16.046 16.3564 16.0537C15.1601 17.2535 15.0796 19.1366 16.1709 20.4372L22.2 27.5562V29.722C22.1993 33.5901 24.6319 37.0993 28.2544 38.4558L28.7457 37.1447C25.6671 35.9918 23.5993 33.0091 23.6 29.722V27.3C23.6 27.1348 23.5412 26.9737 23.4341 26.8471L17.2413 19.5342C16.6218 18.7964 16.6673 17.7246 17.3813 17.01C17.7382 16.6726 18.2044 16.5052 18.6972 16.5081Z" fill="#7366FF"/>
<path d="M23.6 1.40002H22.2V18.9H23.6V1.40002Z" fill="#7366FF"/>
<path d="M20.1 23.1H18.7V31.5H20.1V23.1Z" fill="#7366FF"/>
<path d="M20.1 0.699951H18.7V16.0999H20.1V0.699951Z" fill="#7366FF"/>
<path d="M11.7001 3.5H10.3V12.6H11.7001V3.5Z" fill="#7366FF"/>
<path d="M15.2 3.5H13.8V9.10003H15.2V3.5Z" fill="#7366FF"/>
<path d="M15.2 23.1H11C10.6137 23.1 10.3 23.4128 10.3 23.7999V27.9999C10.3 28.3871 10.6137 28.6999 11 28.6999H15.2C15.5864 28.6999 15.9 28.3871 15.9 27.9999V23.7999C15.9 23.4128 15.5864 23.1 15.2 23.1ZM14.5 27.3H11.7001V24.5H14.5V27.3Z" fill="#7366FF"/>
</svg>
