<svg width="35" height="36" viewBox="0 0 35 36" fill="none" xmlns="http://www.w3.org/2000/svg">
<path d="M34.9509 19.9814C34.9508 19.9812 34.9508 19.9812 34.9507 19.981L28.3426 3.38851C28.2023 3.03596 27.8027 2.86385 27.4502 3.0041C27.4499 3.00418 27.4497 3.00427 27.4494 3.00444L0.641026 13.6793C0.531698 13.7265 0.436884 13.8019 0.366203 13.8978C0.143252 14.0136 0.00240471 14.2429 0 14.4941V32.3577C0 32.7371 0.307631 33.0447 0.687059 33.0447H29.5436C29.923 33.0447 30.2306 32.7371 30.2306 32.3577V22.6014L34.5673 20.8742C34.9198 20.7336 35.0915 20.3339 34.9509 19.9814ZM28.8565 31.6706H1.37412V15.1812H28.8565V31.6706ZM11.4636 13.8105L22.9677 9.22645C23.9944 10.3056 25.4171 10.919 26.9066 10.9249L28.054 13.8105H11.4636ZM30.2306 21.1256V14.4941C30.2306 14.1147 29.923 13.8071 29.5436 13.8071H29.5326L28.0767 10.1505C28.0605 10.1201 28.0417 10.091 28.0203 10.064C27.9467 9.73307 27.6402 9.50729 27.3024 9.53494C25.9164 9.66127 24.5606 9.07745 23.7001 7.98356C23.486 7.7193 23.1097 7.6536 22.8186 7.82966C22.786 7.83352 22.7536 7.83954 22.7217 7.84752L8.67687 13.4402C8.50691 13.5068 8.37096 13.639 8.29968 13.8071H4.03441L27.3202 4.53521L33.4206 19.8532L30.2306 21.1256Z" fill="#7366FF"/>
<path d="M3.23879 27.0323C4.57272 27.4265 5.61653 28.4691 6.01245 29.8025C6.09928 30.0935 6.36697 30.293 6.67065 30.293C6.70629 30.2908 6.74168 30.2855 6.77646 30.2772C6.80729 30.286 6.83881 30.2924 6.87059 30.2965H23.36C23.3883 30.2928 23.4163 30.287 23.4438 30.2793C23.7871 30.3628 24.133 30.1523 24.2166 29.809C24.2169 29.8077 24.2172 29.8065 24.2175 29.8052C24.6123 28.4704 25.6563 27.4265 26.9911 27.0316C27.3148 26.9326 27.5159 26.6101 27.4624 26.2758C27.4716 26.2425 27.4782 26.2085 27.4824 26.1741V20.6777C27.4783 20.6432 27.4715 20.6092 27.4618 20.576C27.5156 20.2416 27.3144 19.9189 26.9904 19.8202C25.6556 19.4254 24.6119 18.381 24.2181 17.0459C24.1187 16.7199 23.7929 16.5183 23.4569 16.5745C23.4251 16.5657 23.3927 16.5592 23.36 16.5553H6.87059C6.83598 16.5594 6.80171 16.5663 6.76821 16.5759C6.43405 16.5227 6.11164 16.7237 6.01245 17.0472C5.6173 18.3818 4.5734 19.4254 3.23879 19.8202C2.9151 19.9191 2.71396 20.2417 2.76747 20.576C2.75854 20.6094 2.75209 20.6433 2.74823 20.6777V26.1741C2.75218 26.2064 2.75862 26.2384 2.76747 26.2696C2.71113 26.606 2.91269 26.9322 3.23879 27.0323ZM4.12235 20.9566C5.50196 20.4025 6.59542 19.309 7.14953 17.9294H23.0804C23.6347 19.309 24.7285 20.4025 26.1082 20.9566V25.8952C24.7291 26.4499 23.6358 27.5432 23.0811 28.9224H7.14953C6.59482 27.5432 5.50153 26.4499 4.12235 25.8952V20.9566Z" fill="#7366FF"/>
<path d="M15.1153 27.5482C17.392 27.5482 19.2376 25.7026 19.2376 23.4259C19.2376 21.1491 17.392 19.3035 15.1153 19.3035C12.8385 19.3035 10.9929 21.1491 10.9929 23.4259C10.9952 25.7017 12.8395 27.546 15.1153 27.5482ZM15.1153 20.6776C16.6331 20.6776 17.8635 21.9081 17.8635 23.4259C17.8635 24.9437 16.6331 26.1741 15.1153 26.1741C13.5975 26.1741 12.367 24.9437 12.367 23.4259C12.367 21.9081 13.5975 20.6776 15.1153 20.6776Z" fill="#7366FF"/>
<path d="M7.55763 24.4565C8.12677 24.4565 8.58822 23.9951 8.58822 23.4259C8.58822 22.8568 8.12677 22.3953 7.55763 22.3953C6.98848 22.3953 6.52704 22.8568 6.52704 23.4259C6.52704 23.9951 6.98848 24.4565 7.55763 24.4565ZM7.55763 23.0824C7.74734 23.0824 7.90116 23.2362 7.90116 23.4259C7.90116 23.6156 7.74734 23.7694 7.55763 23.7694C7.36791 23.7694 7.2141 23.6156 7.2141 23.4259C7.2141 23.2362 7.36791 23.0824 7.55763 23.0824Z" fill="#7366FF"/>
<path d="M22.673 24.4565C23.2421 24.4565 23.7036 23.9951 23.7036 23.4259C23.7036 22.8568 23.2421 22.3953 22.673 22.3953C22.1038 22.3953 21.6424 22.8568 21.6424 23.4259C21.6424 23.9951 22.1038 24.4565 22.673 24.4565ZM22.673 23.0824C22.8627 23.0824 23.0165 23.2362 23.0165 23.4259C23.0165 23.6156 22.8627 23.7694 22.673 23.7694C22.4833 23.7694 22.3295 23.6156 22.3295 23.4259C22.3295 23.2362 22.4833 23.0824 22.673 23.0824Z" fill="#7366FF"/>
</svg>
