<svg width="37" height="38" viewBox="0 0 37 38" fill="none" xmlns="http://www.w3.org/2000/svg">
<path d="M26.0156 19.5781H27.1719V20.7344H26.0156V19.5781Z" fill="#7366FF"/>
<path d="M16.1875 34.6094C16.5305 34.6094 16.8659 34.5077 17.1511 34.3171C17.4363 34.1265 17.6586 33.8556 17.7899 33.5387C17.9211 33.2218 17.9555 32.8731 17.8885 32.5366C17.8216 32.2002 17.6564 31.8912 17.4139 31.6486C17.1713 31.4061 16.8623 31.2409 16.5259 31.174C16.1894 31.107 15.8407 31.1414 15.5238 31.2726C15.2069 31.4039 14.936 31.6262 14.7454 31.9114C14.5548 32.1967 14.4531 32.532 14.4531 32.875C14.4531 33.335 14.6359 33.7761 14.9611 34.1014C15.2864 34.4266 15.7275 34.6094 16.1875 34.6094ZM16.1875 32.2969C16.3018 32.2969 16.4136 32.3308 16.5087 32.3943C16.6038 32.4578 16.6779 32.5481 16.7216 32.6538C16.7654 32.7594 16.7768 32.8756 16.7545 32.9878C16.7322 33.0999 16.6771 33.2029 16.5963 33.2838C16.5154 33.3646 16.4124 33.4197 16.3003 33.442C16.1881 33.4643 16.0719 33.4529 15.9663 33.4091C15.8606 33.3654 15.7703 33.2913 15.7068 33.1962C15.6433 33.1011 15.6094 32.9893 15.6094 32.875C15.6094 32.7217 15.6703 32.5746 15.7787 32.4662C15.8871 32.3578 16.0342 32.2969 16.1875 32.2969Z" fill="#7366FF"/>
<path d="M9.45408 36.9219H22.9209C24.0208 36.947 25.0857 36.5352 25.8825 35.7767C26.6793 35.0182 27.1429 33.9747 27.1719 32.875V28.8281H29.4844C29.6377 28.8281 29.7848 28.7672 29.8932 28.6588C30.0016 28.5504 30.0625 28.4033 30.0625 28.25V23.0469H31.2188C31.3721 23.0469 31.5191 22.986 31.6275 22.8775C31.736 22.7691 31.7969 22.6221 31.7969 22.4687V17.8437C31.7969 17.6904 31.736 17.5434 31.6275 17.4349C31.5191 17.3265 31.3721 17.2656 31.2188 17.2656H30.0625V9.74999C30.0625 9.59666 30.0016 9.44961 29.8932 9.34119C29.7848 9.23277 29.6377 9.17187 29.4844 9.17187H27.1719V5.12499C27.1429 4.02526 26.6793 2.98182 25.8825 2.22328C25.0857 1.46475 24.0208 1.05295 22.9209 1.07812H9.45408C8.35425 1.05295 7.28929 1.46475 6.4925 2.22328C5.69571 2.98182 5.23206 4.02526 5.20312 5.12499V32.875C5.23206 33.9747 5.69571 35.0182 6.4925 35.7767C7.28929 36.5352 8.35425 36.947 9.45408 36.9219ZM30.6406 21.8906H26.5938C26.1338 21.8906 25.6926 21.7079 25.3674 21.3826C25.0421 21.0574 24.8594 20.6162 24.8594 20.1562C24.8594 19.6963 25.0421 19.2551 25.3674 18.9299C25.6926 18.6046 26.1338 18.4219 26.5938 18.4219H30.6406V21.8906ZM26.5938 17.2656C25.8271 17.2656 25.0919 17.5702 24.5498 18.1123C24.0077 18.6544 23.7031 19.3896 23.7031 20.1562C23.7031 20.9229 24.0077 21.6581 24.5498 22.2002C25.0919 22.7423 25.8271 23.0469 26.5938 23.0469H28.9062V27.6719H13.2969C12.8369 27.6719 12.3957 27.4891 12.0705 27.1639C11.7452 26.8386 11.5625 26.3975 11.5625 25.9375V13.4754C11.9125 13.6835 12.3116 13.7945 12.7188 13.7969H28.9062V17.2656H26.5938ZM28.9062 12.6406H12.7188C12.4121 12.6406 12.118 12.5188 11.9012 12.302C11.6843 12.0851 11.5625 11.791 11.5625 11.4844C11.5625 11.1777 11.6843 10.8836 11.9012 10.6668C12.118 10.4499 12.4121 10.3281 12.7188 10.3281H28.9062V12.6406ZM19.8158 2.23437L19.1556 3.39062H13.2194L12.5592 2.23437H19.8158ZM6.35938 5.12499C6.38817 4.33189 6.72995 3.58248 7.30993 3.04075C7.88991 2.49902 8.66085 2.20908 9.45408 2.23437H11.2272L12.3834 4.2578C12.4343 4.34586 12.5074 4.41895 12.5955 4.4697C12.6836 4.52045 12.7836 4.54707 12.8853 4.54687H19.4909C19.5926 4.54707 19.6925 4.52045 19.7806 4.4697C19.8687 4.41895 19.9419 4.34586 19.9927 4.2578L21.149 2.23437H22.9221C23.7151 2.20939 24.4858 2.49947 25.0655 3.04117C25.6452 3.58286 25.9868 4.33209 26.0156 5.12499V9.17187H12.7188C12.1054 9.17187 11.5172 9.4155 11.0836 9.84918C10.6499 10.2829 10.4062 10.8711 10.4062 11.4844V25.9375C10.4072 26.7038 10.712 27.4386 11.2539 27.9805C11.7958 28.5224 12.5305 28.8272 13.2969 28.8281H26.0156V32.875C25.9868 33.6681 25.645 34.4175 25.0651 34.9592C24.4851 35.501 23.7141 35.7909 22.9209 35.7656H9.45408C8.66085 35.7909 7.88991 35.501 7.30993 34.9592C6.72995 34.4175 6.38817 33.6681 6.35938 32.875V5.12499Z" fill="#7366FF"/>
</svg>
