<svg width="60" height="51" viewBox="0 0 60 51" fill="none" xmlns="http://www.w3.org/2000/svg">
<path fill-rule="evenodd" clip-rule="evenodd" d="M24.7512 0.719141C32.9993 -0.303174 41.9159 -0.994134 48.4885 4.16781C55.6993 9.83105 61.0323 19.0942 59.8304 28.2696C58.6965 36.9264 50.1857 42.0468 42.9156 46.713C37.467 50.2101 31.1507 51.5691 24.7512 50.7847C19.1417 50.097 14.6946 46.5835 10.5002 42.7395C5.97471 38.592 0.979905 34.4067 0.184146 28.2696C-0.698591 21.4618 1.63983 14.5021 6.1788 9.41195C10.9352 4.07796 17.7168 1.59103 24.7512 0.719141Z" fill="#FF3364" fill-opacity="0.07"/>
<path d="M48.1992 25.1722C47.8336 25.1722 47.5373 24.8759 47.5373 24.5103V21.8027C47.5373 21.4371 47.8336 21.1408 48.1992 21.1408C48.5649 21.1408 48.8612 21.4371 48.8612 21.8027V24.5103C48.8612 24.8759 48.5649 25.1722 48.1992 25.1722Z" fill="#DDAEAE"/>
<path d="M31.1584 33.9472C33.4386 28.5329 34.9076 16.1749 34.9076 12.3075C34.9076 5.68395 30.5994 3.30219 25.2848 3.30219C19.9702 3.30219 15.662 5.68404 15.662 12.3075C15.662 16.1748 17.1308 28.5329 19.4112 33.9472H31.1584Z" fill="#8B5E5E"/>
<path d="M25.2848 3.30219C24.8823 3.30219 24.4856 3.31605 24.0961 3.34423C28.7196 3.68755 32.2994 6.18562 32.2994 12.3075C32.2994 16.1748 30.8707 28.5329 28.6528 33.9472H31.1584C33.4387 28.533 34.9076 16.1749 34.9076 12.3075C34.9075 5.68395 30.5993 3.30219 25.2848 3.30219Z" fill="#9D6B6B"/>
<path d="M22.6724 17.9961H27.8969V27.0349H22.6724V17.9961Z" fill="#FFCDBE"/>
<path d="M27.8968 17.9961H22.6724V24.178C23.3697 24.5078 24.1487 24.6931 24.9712 24.6931H25.5973C26.4201 24.6931 27.1993 24.5078 27.8968 24.178V17.9961Z" fill="#EBAE9D"/>
<path d="M34.1179 15.538C34.1179 16.5489 33.298 17.3688 32.2871 17.3688H29.0491V13.7072H32.2871C33.298 13.7072 34.1179 14.5261 34.1179 15.538Z" fill="#FFCDBE"/>
<path d="M30.982 12.4816V17.4171C30.982 20.3912 28.5715 22.8017 25.5973 22.8017H24.9712C21.998 22.8017 19.5875 20.3911 19.5875 17.418V16.7503C23.078 15.2401 26.1136 12.6821 28.1856 9.49324C29.747 9.59541 30.982 10.8947 30.982 12.4816Z" fill="#FFCDBE"/>
<path d="M25.3959 20.68H25.1735C24.5025 20.68 23.8649 20.4205 23.3779 19.9492C23.1046 19.6847 23.0976 19.2489 23.3619 18.9757C23.6264 18.7025 24.0622 18.6953 24.3354 18.9597C24.5642 19.1811 24.8618 19.303 25.1734 19.303H25.3958C25.7074 19.303 26.005 19.1811 26.2337 18.9598C26.5071 18.6952 26.9428 18.7024 27.2072 18.9757C27.4717 19.2489 27.4645 19.6848 27.1913 19.9491C26.7045 20.4205 26.0668 20.68 25.3959 20.68Z" fill="#E09380"/>
<path d="M37.5697 29.917V42.2718C37.5697 42.5252 37.3642 42.7308 37.1107 42.7308H17.3571V36.0517H13V29.917C13 27.9887 14.5633 26.4254 16.4917 26.4254H19.863L22.6302 27.8941L25.4652 26.4254L28.3002 27.4351L30.9724 26.4254H34.0778C36.0064 26.4254 37.5697 27.9887 37.5697 29.917Z" fill="#FFAABE"/>
<path d="M34.094 26.4255C33.6091 26.4233 33.2123 26.81 33.2123 27.2948V42.7309H37.1106C37.3641 42.7309 37.5696 42.5253 37.5696 42.2719V29.917C37.5697 27.994 36.015 26.4341 34.094 26.4255Z" fill="#FF3364"/>
<path d="M37.6172 6.2597V21.7083C37.6172 21.9695 37.8289 22.1811 38.09 22.1811H58.1091C58.3703 22.1811 58.5819 21.9695 58.5819 21.7083V6.2597H37.6172Z" fill="#F9F9F9"/>
<path d="M58.1091 19.8158H38.09C37.8289 19.8158 37.6172 19.6041 37.6172 19.343V21.7082C37.6172 21.9694 37.8289 22.181 38.09 22.181H58.1091C58.3703 22.181 58.5819 21.9694 58.5819 21.7082V19.343C58.5818 19.6041 58.3702 19.8158 58.1091 19.8158Z" fill="#8B5E5E"/>
<path d="M36.199 5.78686V4.27817C36.199 4.01701 36.4107 3.80533 36.6718 3.80533H59.5271C59.7883 3.80533 60 4.01701 60 4.27817V5.78686C60 6.04802 59.7883 6.2597 59.5271 6.2597H36.6718C36.4108 6.2597 36.199 6.04802 36.199 5.78686Z" fill="#9D6B6B"/>
<path d="M26.8707 32.9307L17.3573 38.4231V27.291C17.3573 26.8129 16.9698 26.4254 16.4917 26.4254C14.5649 26.4254 13.0017 27.9875 13.0001 29.9139V40.8808C13.0001 42.4366 14.2613 43.6977 15.817 43.6977H16.1813C16.6758 43.6977 17.1615 43.5675 17.5898 43.3203L29.0493 36.7041L26.8707 32.9307Z" fill="#FF3364"/>
<path d="M28.2172 35.8706L16.7577 42.4867C16.3295 42.734 15.8437 42.8641 15.3493 42.8641H14.9849C14.4193 42.8641 13.893 42.6967 13.4517 42.4098C13.9536 43.1845 14.8251 43.6977 15.817 43.6977H16.1813C16.6758 43.6977 17.1615 43.5675 17.5897 43.3203L29.0493 36.7041L28.4803 35.7186L28.2172 35.8706Z" fill="#FF3364"/>
<path d="M31.6687 33.693C31.5201 33.693 31.3703 33.6466 31.2425 33.5503C30.9296 33.3146 30.867 32.87 31.1026 32.557L41.4699 18.7936C41.7056 18.4808 42.1501 18.4181 42.4632 18.6539C42.776 18.8896 42.8386 19.3342 42.603 19.6472L32.2358 33.4106C32.0963 33.5956 31.8838 33.693 31.6687 33.693Z" fill="#407194"/>
<path d="M26.8707 32.9307L30.0487 31.0959C31.0907 30.4943 32.4231 30.8513 33.0247 31.8933C33.6264 32.9353 33.2694 34.2678 32.2273 34.8694L29.0493 36.7042L26.8707 32.9307Z" fill="#FFCDBE"/>
<path d="M33.0248 31.8932C32.8219 31.5418 32.5357 31.2687 32.2057 31.0836C32.7883 32.122 32.4294 33.4387 31.3952 34.0358L28.4803 35.7187L29.0492 36.7042L32.2272 34.8694C33.2694 34.2677 33.6264 32.9353 33.0248 31.8932Z" fill="#EBAE9D"/>
<path d="M48.1992 28.2518C46.9722 28.2518 45.974 27.2536 45.974 26.0265C45.974 24.7995 46.9723 23.8012 48.1992 23.8012C49.4262 23.8012 50.4245 24.7995 50.4245 26.0265C50.4245 27.2535 49.4262 28.2518 48.1992 28.2518ZM48.1992 25.2195C47.7544 25.2195 47.3924 25.5815 47.3924 26.0264C47.3924 26.4713 47.7544 26.8332 48.1992 26.8332C48.6441 26.8332 49.006 26.4713 49.006 26.0264C49.006 25.5815 48.6441 25.2195 48.1992 25.2195Z" fill="#8B5E5E"/>
<path d="M25.3799 26.4254C26.473 30.6331 29.0698 29.8166 30.982 26.4254H25.3799Z" fill="#FCFCFD"/>
<path d="M25.4734 26.4254C24.3803 30.6331 21.7835 29.8166 19.8713 26.4254H25.4734Z" fill="#FCFCFD"/>
</svg>
