<svg width="102" height="89" viewBox="0 0 102 89" fill="none" xmlns="http://www.w3.org/2000/svg">
<path fill-rule="evenodd" clip-rule="evenodd" d="M0.00610231 45.7008C-0.259055 33.081 8.15462 22.277 17.3749 14.0646C25.8476 6.51804 36.7333 4.56253 47.8045 3.12733C61.2641 1.3825 76.105 -3.48209 86.9035 5.05132C98.4344 14.1635 103.362 30.7447 101.679 45.7008C100.128 59.4792 89.2706 69.3519 78.7121 77.834C69.7418 85.0402 59.1357 89.3293 47.8045 88.9802C36.8254 88.6419 26.9588 83.4842 18.6759 75.9843C9.63503 67.7982 0.267935 58.1622 0.00610231 45.7008Z" fill="#54BA4A" fill-opacity="0.08"/>
<path d="M80.283 21.9328H29.3087C27.7723 21.9328 26.5269 23.176 26.5269 24.7095V31.5155V70.5541C26.5269 72.0877 27.7723 73.3308 29.3087 73.3308H80.283C81.8193 73.3308 83.0647 72.0877 83.0647 70.5541V31.5155V24.7095C83.0647 23.176 81.8193 21.9328 80.283 21.9328Z" fill="#BFBFBF"/>
<path d="M77.5792 70.9679H24.2949C22.6889 70.9679 21.3871 69.666 21.3871 68.0601V25.7847H80.4868V68.0601C80.4868 69.666 79.185 70.9679 77.5792 70.9679Z" fill="white"/>
<path d="M80.4872 27.1786V68.0605C80.4872 69.666 79.1853 70.9679 77.5799 70.9679H74.8039C76.4108 70.9679 77.7113 69.6659 77.7113 68.0605V27.1786H80.4872Z" fill="#EFEDEF"/>
<path d="M80.4868 27.1784H21.3871V20.0513C21.3871 18.4453 22.6889 17.1435 24.2949 17.1435H77.5792C79.1852 17.1435 80.487 18.4453 80.487 20.0513L80.4868 27.1784Z" fill="#54BA4A"/>
<path d="M31.9566 40.1841C33.9182 40.1841 35.5085 38.5939 35.5085 36.6322C35.5085 34.6705 33.9182 33.0803 31.9566 33.0803C29.9949 33.0803 28.4047 34.6705 28.4047 36.6322C28.4047 38.5939 29.9949 40.1841 31.9566 40.1841Z" fill="#E2E2E2"/>
<path d="M44.6103 40.1841C46.5719 40.1841 48.1622 38.5939 48.1622 36.6322C48.1622 34.6705 46.5719 33.0803 44.6103 33.0803C42.6486 33.0803 41.0583 34.6705 41.0583 36.6322C41.0583 38.5939 42.6486 40.1841 44.6103 40.1841Z" fill="#E2E2E2"/>
<path d="M57.2638 40.1841C59.2255 40.1841 60.8157 38.5939 60.8157 36.6322C60.8157 34.6705 59.2255 33.0803 57.2638 33.0803C55.3022 33.0803 53.7119 34.6705 53.7119 36.6322C53.7119 38.5939 55.3022 40.1841 57.2638 40.1841Z" fill="#E2E2E2"/>
<path d="M69.9174 40.1841C71.8791 40.1841 73.4693 38.5939 73.4693 36.6322C73.4693 34.6705 71.8791 33.0803 69.9174 33.0803C67.9558 33.0803 66.3655 34.6705 66.3655 36.6322C66.3655 38.5939 67.9558 40.1841 69.9174 40.1841Z" fill="#E2E2E2"/>
<path d="M31.9566 52.6251C33.9182 52.6251 35.5085 51.0349 35.5085 49.0732C35.5085 47.1115 33.9182 45.5213 31.9566 45.5213C29.9949 45.5213 28.4047 47.1115 28.4047 49.0732C28.4047 51.0349 29.9949 52.6251 31.9566 52.6251Z" fill="#E2E2E2"/>
<path d="M44.6103 52.6251C46.5719 52.6251 48.1622 51.0349 48.1622 49.0732C48.1622 47.1116 46.5719 45.5213 44.6103 45.5213C42.6486 45.5213 41.0583 47.1116 41.0583 49.0732C41.0583 51.0349 42.6486 52.6251 44.6103 52.6251Z" fill="#E2E2E2"/>
<path d="M57.2638 52.6251C59.2255 52.6251 60.8157 51.0349 60.8157 49.0732C60.8157 47.1116 59.2255 45.5213 57.2638 45.5213C55.3022 45.5213 53.7119 47.1116 53.7119 49.0732C53.7119 51.0349 55.3022 52.6251 57.2638 52.6251Z" fill="#E2E2E2"/>
<path d="M69.9174 52.6251C71.8791 52.6251 73.4693 51.0349 73.4693 49.0732C73.4693 47.1116 71.8791 45.5213 69.9174 45.5213C67.9558 45.5213 66.3655 47.1116 66.3655 49.0732C66.3655 51.0349 67.9558 52.6251 69.9174 52.6251Z" fill="#E2E2E2"/>
<path d="M31.9566 65.0661C33.9182 65.0661 35.5085 63.4759 35.5085 61.5142C35.5085 59.5525 33.9182 57.9623 31.9566 57.9623C29.9949 57.9623 28.4047 59.5525 28.4047 61.5142C28.4047 63.4759 29.9949 65.0661 31.9566 65.0661Z" fill="#E2E2E2"/>
<path d="M44.6103 65.0661C46.5719 65.0661 48.1622 63.4759 48.1622 61.5142C48.1622 59.5525 46.5719 57.9623 44.6103 57.9623C42.6486 57.9623 41.0583 59.5525 41.0583 61.5142C41.0583 63.4759 42.6486 65.0661 44.6103 65.0661Z" fill="#E2E2E2"/>
<path d="M57.2638 65.0661C59.2255 65.0661 60.8157 63.4759 60.8157 61.5142C60.8157 59.5525 59.2255 57.9623 57.2638 57.9623C55.3022 57.9623 53.7119 59.5525 53.7119 61.5142C53.7119 63.4759 55.3022 65.0661 57.2638 65.0661Z" fill="#E2E2E2"/>
<path d="M80.4872 20.0511V27.1784H77.7113V20.0511C77.7113 18.4456 76.4108 17.1437 74.8039 17.1437H77.5799C79.1853 17.1437 80.4872 18.4457 80.4872 20.0511Z" fill="#369B2C"/>
<path d="M79.1818 83.0024C87.0035 83.0024 93.3443 76.6617 93.3443 68.8399C93.3443 61.0182 87.0035 54.6774 79.1818 54.6774C71.3601 54.6774 65.0193 61.0182 65.0193 68.8399C65.0193 76.6617 71.3601 83.0024 79.1818 83.0024Z" fill="#FFA941"/>
<path d="M80.5278 61.7411L81.9193 64.5608C82.138 65.0038 82.5606 65.3109 83.0495 65.382L86.1611 65.8341C87.3924 66.013 87.884 67.5261 86.9931 68.3945L84.7415 70.5894C84.3878 70.9342 84.2263 71.431 84.3098 71.918L84.8413 75.0171C85.0517 76.2433 83.7645 77.1785 82.6632 76.5996L79.88 75.1364C79.4427 74.9065 78.9203 74.9065 78.4829 75.1364L75.6998 76.5996C74.5985 77.1786 73.3114 76.2435 73.5217 75.0171L74.0532 71.918C74.1367 71.431 73.9753 70.9342 73.6215 70.5894L71.3698 68.3945C70.479 67.5261 70.9706 66.013 72.2019 65.8341L75.3134 65.382C75.8024 65.311 76.225 65.004 76.4437 64.5608L77.8352 61.7411C78.3862 60.6254 79.9772 60.6254 80.5278 61.7411Z" fill="white"/>
<path d="M84.742 70.5894C84.3875 70.9337 84.2269 71.4315 84.3094 71.9176L84.8418 75.0167C85.0516 76.2436 83.7653 77.1782 82.6628 76.5995L81.5184 75.9976C81.7643 75.6416 81.8829 75.1887 81.799 74.6968L81.1711 71.0349C81.0727 70.4605 81.2637 69.873 81.6818 69.465L84.3425 66.8723C84.7013 66.5223 84.8707 66.0824 84.8793 65.6468L86.1612 65.8335C87.3924 66.0129 87.8843 67.5263 86.993 68.3944L84.742 70.5894Z" fill="#E2E2E2"/>
<path d="M93.3439 68.8401C93.3439 76.6616 87.0041 83.0029 79.1825 83.0029C76.7099 83.0029 74.3843 82.369 72.3615 81.254C73.711 81.6821 75.1477 81.9124 76.6376 81.9124C84.4592 81.9124 90.8004 75.5712 90.8004 67.7496C90.8004 62.3994 87.8329 57.7417 83.4546 55.3344C89.1878 57.1445 93.3439 62.507 93.3439 68.8401Z" fill="#F49B2F"/>
<path d="M33.7052 22.0259C32.2777 22.0259 31.1205 20.8687 31.1205 19.4412V14.8459C31.1205 13.4184 32.2777 12.2612 33.7052 12.2612C35.1327 12.2612 36.2899 13.4184 36.2899 14.8459V19.441C36.29 20.8687 35.1327 22.0259 33.7052 22.0259Z" fill="#5A5A5A"/>
<path d="M50.937 22.0259C49.5095 22.0259 48.3523 20.8687 48.3523 19.4412V14.8459C48.3523 13.4184 49.5095 12.2612 50.937 12.2612C52.3645 12.2612 53.5217 13.4184 53.5217 14.8459V19.441C53.5217 20.8687 52.3645 22.0259 50.937 22.0259Z" fill="#5A5A5A"/>
<path d="M68.1686 22.0259C66.7411 22.0259 65.5839 20.8687 65.5839 19.4412V14.8459C65.5839 13.4184 66.7411 12.2612 68.1686 12.2612C69.5961 12.2612 70.7533 13.4184 70.7533 14.8459V19.441C70.7533 20.8687 69.5961 22.0259 68.1686 22.0259Z" fill="#5A5A5A"/>
<path d="M36.2901 14.8466V19.441C36.2901 20.8684 35.1331 22.0252 33.7059 22.0252C33.2347 22.0252 32.7921 21.8998 32.4131 21.6793C33.1863 21.2307 33.7059 20.397 33.7059 19.441V14.8466C33.7059 14.1322 33.416 13.4857 32.9477 13.0176C32.7892 12.8591 32.6094 12.7216 32.4131 12.6083C32.7921 12.3878 33.2347 12.2609 33.7059 12.2609C34.4188 12.2609 35.0652 12.5509 35.5334 13.0176C36.0015 13.4857 36.2901 14.1321 36.2901 14.8466Z" fill="#444444"/>
<path d="M53.5216 14.8466V19.441C53.5216 20.8684 52.3647 22.0252 50.9375 22.0252C50.4663 22.0252 50.0237 21.8998 49.6447 21.6793C50.4179 21.2322 50.9375 20.397 50.9375 19.441V14.8466C50.9375 14.1322 50.649 13.4857 50.1808 13.0176C50.0223 12.8591 49.841 12.7201 49.6447 12.6083C50.0237 12.3878 50.4663 12.2609 50.9375 12.2609C51.6519 12.2609 52.2968 12.5509 52.765 13.0176C53.2317 13.4857 53.5216 14.1321 53.5216 14.8466Z" fill="#444444"/>
<path d="M70.7531 14.8466V19.441C70.7531 20.8684 69.5961 22.0252 68.1689 22.0252C67.6992 22.0252 67.2567 21.8998 66.8776 21.6793C67.6493 21.2307 68.1689 20.397 68.1689 19.441V14.8466C68.1689 14.1322 67.879 13.4857 67.4122 13.0176C67.2537 12.8591 67.074 12.7216 66.8776 12.6083C67.2567 12.3878 67.6992 12.2609 68.1689 12.2609C68.8817 12.2609 69.5282 12.5509 69.9964 13.0176C70.4645 13.4857 70.7531 14.1321 70.7531 14.8466Z" fill="#444444"/>
<path d="M35.5084 36.6315C35.5084 38.5935 33.9184 40.1835 31.9565 40.1835C30.6919 40.1835 29.5808 39.5223 28.9515 38.527C29.1496 38.5617 29.3523 38.579 29.5606 38.579C31.5225 38.579 33.1125 36.9889 33.1125 35.0271C33.1125 34.3297 32.9114 33.6801 32.5656 33.1317C34.2367 33.421 35.5084 34.878 35.5084 36.6315Z" fill="#CECECE"/>
<path d="M48.1624 36.6315C48.1624 38.5935 46.5723 40.1835 44.6105 40.1835C43.3459 40.1835 42.2348 39.5223 41.6054 38.527C41.8036 38.5617 42.0062 38.579 42.2145 38.579C44.1765 38.579 45.7664 36.9889 45.7664 35.0271C45.7664 34.3297 45.5653 33.6801 45.2196 33.1317C46.8906 33.421 48.1624 34.878 48.1624 36.6315Z" fill="#CECECE"/>
<path d="M60.8164 36.6315C60.8164 38.5935 59.2249 40.1835 57.2643 40.1835C55.9997 40.1835 54.8886 39.5223 54.2593 38.527C54.4574 38.5617 54.6601 38.579 54.8684 38.579C56.8303 38.579 58.4204 36.9889 58.4204 35.0271C58.4204 34.3297 58.2193 33.6801 57.8736 33.1317C59.5446 33.421 60.8164 34.878 60.8164 36.6315Z" fill="#CECECE"/>
<path d="M73.4689 36.6315C73.4689 38.5935 71.8789 40.1835 69.917 40.1835C68.6525 40.1835 67.5413 39.5223 66.912 38.5254C67.1102 38.5616 67.3128 38.579 67.5211 38.579C69.4831 38.579 71.073 36.9889 71.073 35.0271C71.073 34.3297 70.8719 33.6801 70.5262 33.1317C72.1972 33.421 73.4689 34.878 73.4689 36.6315Z" fill="#CECECE"/>
<path d="M35.5084 49.0729C35.5084 51.0349 33.9184 52.625 31.9565 52.625C30.6919 52.625 29.5808 51.9637 28.9515 50.9684C29.1496 51.0031 29.3523 51.0205 29.5606 51.0205C31.5225 51.0205 33.1125 49.429 33.1125 47.4686C33.1125 46.7713 32.9114 46.1217 32.5656 45.5733C34.2367 45.8625 35.5084 47.3194 35.5084 49.0729Z" fill="#CECECE"/>
<path d="M48.1624 49.0728C48.1624 51.0348 46.5723 52.6249 44.6105 52.6249C43.3459 52.6249 42.2348 51.9636 41.6054 50.9683C41.8036 51.003 42.0062 51.0205 42.2145 51.0205C44.1765 51.0205 45.7664 49.429 45.7664 47.4686C45.7664 46.7712 45.5653 46.1216 45.2196 45.5732C46.8906 45.8625 48.1624 47.3193 48.1624 49.0728Z" fill="#CECECE"/>
<path d="M60.8164 49.0728C60.8164 51.0348 59.2249 52.6249 57.2643 52.6249C55.9997 52.6249 54.8886 51.9636 54.2593 50.9683C54.4574 51.003 54.6601 51.0205 54.8684 51.0205C56.8303 51.0205 58.4204 49.429 58.4204 47.4686C58.4204 46.7712 58.2193 46.1216 57.8736 45.5732C59.5446 45.8625 60.8164 47.3193 60.8164 49.0728Z" fill="#CECECE"/>
<path d="M73.4689 49.0728C73.4689 51.0348 71.8789 52.6249 69.917 52.6249C68.6525 52.6249 67.5413 51.9636 66.912 50.9668C67.1102 51.0029 67.3128 51.0203 67.5211 51.0203C69.4831 51.0203 71.073 49.4288 71.073 47.4684C71.073 46.771 70.8719 46.1215 70.5262 45.5731C72.1972 45.8624 73.4689 47.3193 73.4689 49.0728Z" fill="#CECECE"/>
<path d="M35.5084 61.5142C35.5084 63.4762 33.9184 65.0661 31.9565 65.0661C30.6905 65.0661 29.5794 64.4035 28.9515 63.4066C29.1496 63.4427 29.3523 63.4601 29.5606 63.4601C31.5225 63.4601 33.1125 61.8701 33.1125 59.9081C33.1125 59.2137 32.9128 58.564 32.5656 58.0157C34.2367 58.3037 35.5084 59.7607 35.5084 61.5142Z" fill="#CECECE"/>
<path d="M48.1624 61.5142C48.1624 63.4762 46.5723 65.0661 44.6105 65.0661C43.3445 65.0661 42.2333 64.4035 41.6054 63.4066C41.8036 63.4427 42.0062 63.4601 42.2145 63.4601C44.1765 63.4601 45.7664 61.8701 45.7664 59.9081C45.7664 59.2137 45.5667 58.564 45.2196 58.0157C46.8906 58.3037 48.1624 59.7607 48.1624 61.5142Z" fill="#CECECE"/>
<path d="M60.8164 61.5142C60.8164 63.4762 59.2249 65.0661 57.2643 65.0661C55.9983 65.0661 54.8872 64.4035 54.2593 63.4066C54.4574 63.4427 54.6601 63.4601 54.8684 63.4601C56.8303 63.4601 58.4204 61.8701 58.4204 59.9081C58.4204 59.2137 58.2207 58.564 57.8736 58.0157C59.5446 58.3037 60.8164 59.7607 60.8164 61.5142Z" fill="#CECECE"/>
</svg>
