<svg width="44" height="28" viewBox="0 0 44 28" fill="none" xmlns="http://www.w3.org/2000/svg">
<g clip-path="url(#clip0_128_30)">
<path d="M2.23486 14.2572C2.12264 14.1368 1.98588 14.0411 1.83509 13.9738C1.6843 13.9065 1.52299 13.8746 1.35817 13.8746C1.19335 13.8711 1.03204 13.9065 0.881255 13.9703C0.730465 14.0376 0.593702 14.1332 0.481486 14.2537C0.365764 14.3706 0.274588 14.5087 0.214974 14.661C0.155359 14.8169 0.123799 14.9798 0.123799 15.1427C0.120292 15.3092 0.151853 15.4722 0.214974 15.6245C0.278095 15.7768 0.36927 15.9149 0.484993 16.0318C0.597241 16.1523 0.733266 16.2477 0.884276 16.3117C1.03529 16.3758 1.19792 16.4071 1.36168 16.4038C1.52508 16.4047 1.68698 16.3722 1.83764 16.3083C1.9883 16.2443 2.1246 16.1503 2.23836 16.0318C2.35759 15.9185 2.44877 15.7803 2.51189 15.628C2.57501 15.4757 2.60657 15.3128 2.60657 15.1463C2.60657 14.9798 2.57501 14.8169 2.51189 14.6646C2.44526 14.5087 2.35409 14.3706 2.23486 14.2572ZM16.9106 11.381C16.893 12.1744 16.9316 12.9714 17.0228 13.7613H16.9807C16.8825 13.5665 16.6651 13.2052 16.332 12.6774L8.33659 0H5.90992V16.1841H7.77551V4.48438C7.79655 3.74407 7.76499 3.00375 7.68784 2.26344H7.75797C7.89123 2.61766 8.06306 2.95771 8.26645 3.2765L16.4792 16.1841H18.7762V0H16.9106V11.381ZM31.425 14.406H24.8323V8.79873H30.6009V7.09141H24.8323V1.71441H31.0217V0H22.9211V16.1841H31.4144L31.425 14.406ZM32.8522 0V1.71441H37.446V16.1841H39.3116V1.71441H43.9581V0H32.8522ZM14.5681 20.208C14.1021 20.3958 13.6812 20.6821 13.3337 21.0475C12.976 21.4336 12.6955 21.887 12.5131 22.3865C12.3308 22.8859 12.2501 23.4137 12.2711 23.9415C12.2361 24.9191 12.5727 25.8755 13.218 26.6052C13.5406 26.9488 13.9333 27.2144 14.3682 27.3915C14.803 27.5686 15.2694 27.6466 15.7358 27.6253C16.4372 27.6501 17.135 27.5013 17.7697 27.1896L17.7767 26.3643C17.1946 26.7079 16.5318 26.8779 15.8585 26.8602C15.4973 26.8744 15.1362 26.8106 14.803 26.6725C14.4699 26.5343 14.1683 26.3218 13.9228 26.0526C13.4095 25.4503 13.1457 24.6714 13.1864 23.8777C13.1443 23.0382 13.4284 22.2164 13.9754 21.5859C14.2349 21.2955 14.554 21.0688 14.9082 20.9129C15.2638 20.7602 15.6477 20.6865 16.0339 20.6969C16.6476 20.6862 17.2507 20.8385 17.7873 21.1396V20.2505C17.2308 20.0239 16.6335 19.9177 16.0339 19.9388C15.5324 19.9317 15.031 20.0203 14.5681 20.208ZM23.3104 22.7442C23.076 22.4952 22.791 22.3004 22.475 22.1733C22.159 22.0461 21.8195 21.9895 21.4798 22.0075C21.1187 21.9897 20.761 22.05 20.4243 22.181C20.0877 22.3121 19.7826 22.5104 19.5231 22.7619C19.2706 23.0453 19.0777 23.3747 18.9515 23.736C18.8252 24.0973 18.7726 24.4763 18.7972 24.8589C18.7621 25.585 19.0111 26.297 19.488 26.839C19.7265 27.0975 20.014 27.303 20.3367 27.4411C20.6593 27.5757 21.0064 27.643 21.3536 27.6289C21.7078 27.6395 22.062 27.5722 22.3916 27.434C22.7212 27.2959 23.0158 27.0869 23.2578 26.8213C23.7496 26.2613 24.0039 25.5286 23.9661 24.781C24.0082 24.0371 23.7733 23.311 23.3104 22.7442ZM22.6686 26.382C22.5143 26.5619 22.3213 26.7037 22.1042 26.7964C21.8872 26.8892 21.652 26.9304 21.4167 26.9169C21.1748 26.9275 20.9363 26.8815 20.7154 26.7894C20.4945 26.6937 20.2981 26.552 20.1368 26.3679C19.8007 25.9476 19.6319 25.4159 19.6634 24.8766C19.6318 24.3205 19.8001 23.7714 20.1368 23.3322C20.2946 23.148 20.4909 23.0028 20.7119 22.9036C20.9328 22.808 21.1748 22.7619 21.4132 22.7726C21.6517 22.7584 21.8866 22.8044 22.104 22.9001C22.3215 22.9957 22.5143 23.1409 22.6686 23.3251C22.9873 23.7705 23.1423 24.3141 23.107 24.8624C23.142 25.4008 22.9877 25.9428 22.6686 26.382ZM26.7329 22.3971C26.4699 22.6344 26.2771 22.9426 26.1824 23.2862V22.1739H25.3057V27.5013H26.1824V24.7845C26.1543 24.2921 26.2806 23.7998 26.5401 23.3818C26.6348 23.2295 26.761 23.102 26.9153 23.0134C27.0696 22.9249 27.2414 22.8717 27.4168 22.8682C27.6412 22.8505 27.8656 22.9107 28.055 23.0382V22.1598C27.8937 22.1066 27.7254 22.0818 27.557 22.0889C27.2555 22.0854 26.9644 22.1952 26.7329 22.3971ZM33.1853 24.5968C33.2274 23.9202 33.0275 23.2543 32.6243 22.7159C32.4244 22.4892 32.1789 22.3085 31.9019 22.1916C31.6248 22.0748 31.3268 22.0216 31.0287 22.0393C30.6991 22.0287 30.3694 22.096 30.0643 22.2306C29.7628 22.3652 29.4927 22.5671 29.2753 22.8221C28.7992 23.3833 28.5522 24.1064 28.5845 24.8447C28.5389 25.5815 28.7669 26.3112 29.2227 26.885C29.4437 27.1294 29.7172 27.3207 30.0188 27.4482C30.3203 27.5757 30.65 27.6289 30.9761 27.6147C31.6248 27.6466 32.2666 27.4695 32.8066 27.1082V26.3076C32.3452 26.6863 31.7705 26.8961 31.176 26.9027C30.948 26.9169 30.7166 26.8815 30.5027 26.7965C30.2888 26.7114 30.0924 26.5875 29.9311 26.421C29.6178 26.038 29.4588 25.5498 29.4857 25.0537H33.1924L33.1853 24.5968ZM29.4787 24.3488C29.5243 23.9273 29.7067 23.5306 29.9942 23.2224C30.1231 23.0825 30.2795 22.9715 30.4535 22.8965C30.6274 22.8214 30.815 22.784 31.0042 22.7867C31.1865 22.7761 31.3653 22.808 31.5337 22.8788C31.702 22.9497 31.8493 23.0559 31.9685 23.1941C32.214 23.5235 32.3367 23.9273 32.3192 24.3382L29.4787 24.3488Z" fill="#FF9921"/>
</g>
<defs>
<clipPath id="clip0_128_30">
<rect width="44" height="28" fill="white"/>
</clipPath>
</defs>
</svg>
