<svg width="39" height="29" viewBox="0 0 39 29" fill="none" xmlns="http://www.w3.org/2000/svg">
<g clip-path="url(#clip0_128_25)">
<path d="M22.2223 7.98709L20.8877 10.2938L16.3232 2.40287L2.31116 26.6236H11.7983C11.7983 27.8976 12.833 28.9303 14.1094 28.9303H2.31116C1.48555 28.9303 0.72274 28.4905 0.310008 27.7768C-0.102724 27.0631 -0.102682 26.1839 0.310119 25.4702L14.3222 1.2495C14.735 0.535759 15.498 0.0960693 16.3237 0.0960693C17.1494 0.0960693 17.9124 0.535759 18.3252 1.2495L22.2223 7.98709Z" fill="#00C58E"/>
<path d="M32.3374 25.4703L23.5571 10.2939L22.2225 7.98712L20.8878 10.2939L12.1085 25.4703C11.6957 26.1839 11.6956 27.0631 12.1083 27.7768C12.5211 28.4905 13.2839 28.9304 14.1095 28.9304H30.3335C31.1593 28.9304 31.9224 28.491 32.3354 27.7772C32.7483 27.0635 32.7484 26.184 32.3355 25.4703H32.3374ZM14.1095 26.6236L22.2225 12.6006L30.3335 26.6236L14.1095 26.6236Z" fill="#2F495E"/>
<path d="M38.6147 27.777C38.2019 28.4905 37.4392 28.9303 36.6137 28.9303H30.3332C31.6096 28.9303 32.6443 27.8976 32.6443 26.6236H36.6088L25.3595 7.17686L23.5568 10.2938L22.2222 7.9871L23.3585 6.02349C23.7713 5.30975 24.5343 4.87006 25.36 4.87006C26.1857 4.87006 26.9487 5.30975 27.3615 6.02349L38.6147 25.4702C39.0275 26.1839 39.0275 27.0633 38.6147 27.777Z" fill="#108775"/>
</g>
<defs>
<clipPath id="clip0_128_25">
<rect width="39" height="29" fill="white"/>
</clipPath>
</defs>
</svg>
